<svg width="18" height="19" viewBox="0 0 18 19" fill="none" xmlns="http://www.w3.org/2000/svg">
<path d="M11.2495 17.4993V12.9992C11.2495 12.8003 11.1704 12.6095 11.0298 12.4688C10.8891 12.3282 10.6984 12.2492 10.4995 12.2492H7.49945C7.30054 12.2492 7.10977 12.3282 6.96912 12.4688C6.82847 12.6095 6.74945 12.8003 6.74945 12.9992V17.4993C6.74945 17.6982 6.67045 17.8889 6.52981 18.0296C6.38918 18.1702 6.19844 18.2492 5.99954 18.2493L1.50009 18.2499C1.40159 18.2499 1.30406 18.2305 1.21305 18.1928C1.12205 18.1551 1.03936 18.0999 0.969703 18.0302C0.900049 17.9606 0.844796 17.8779 0.807099 17.7869C0.769402 17.6959 0.75 17.5984 0.75 17.4999V8.8317C0.75 8.72721 0.771834 8.62388 0.814101 8.52832C0.856369 8.43276 0.918138 8.34708 0.995448 8.27679L8.49493 1.45791C8.63299 1.33238 8.81287 1.26282 8.99946 1.26282C9.18605 1.26281 9.36594 1.33236 9.504 1.45787L17.0045 8.27679C17.0818 8.34708 17.1436 8.43276 17.1859 8.52832C17.2282 8.62389 17.25 8.72723 17.25 8.83173V17.4999C17.25 17.5984 17.2306 17.6959 17.1929 17.7869C17.1552 17.8779 17.1 17.9606 17.0303 18.0302C16.9606 18.0999 16.878 18.1551 16.7869 18.1928C16.6959 18.2305 16.5984 18.2499 16.4999 18.2499L11.9994 18.2493C11.8005 18.2493 11.6097 18.1702 11.4691 18.0296C11.3285 17.8889 11.2494 17.6982 11.2495 17.4993V17.4993Z" stroke="#BCB5D2" stroke-width="1.5" stroke-linecap="round" stroke-linejoin="round"/>
</svg>
