<svg width="22" height="20" viewBox="0 0 22 20" fill="none" xmlns="http://www.w3.org/2000/svg">
<path d="M3.9031 6.58751C4.07185 6.23126 4.26872 5.89376 4.49372 5.56563L4.45622 3.12813C4.45622 2.90313 4.54997 2.68751 4.7281 2.53751C5.59997 1.80626 6.59372 1.21563 7.6906 0.821883C7.90622 0.746883 8.1406 0.765633 8.3281 0.887508L10.4187 2.14376C10.8125 2.11563 11.2062 2.11563 11.6 2.14376L13.6906 0.887508C13.8875 0.775008 14.1218 0.746883 14.3375 0.821883C15.4062 1.20626 16.4093 1.77813 17.3 2.52813C17.4687 2.66876 17.5718 2.89376 17.5625 3.11876L17.525 5.55626C17.75 5.88438 17.9468 6.22188 18.1156 6.57813L20.2437 7.75938C20.4406 7.87188 20.5812 8.05938 20.6187 8.28438C20.8156 9.40001 20.825 10.5625 20.6187 11.6969C20.5812 11.9219 20.4406 12.1094 20.2437 12.2219L18.1156 13.4031C17.9468 13.7594 17.75 14.0969 17.525 14.425L17.5625 16.8625C17.5625 17.0875 17.4687 17.3031 17.2906 17.4531C16.4187 18.1844 15.425 18.775 14.3281 19.1688C14.1125 19.2438 13.8781 19.225 13.6906 19.1031L11.6 17.8469C11.2062 17.875 10.8125 17.875 10.4187 17.8469L8.3281 19.1031C8.13122 19.2156 7.89685 19.2438 7.68122 19.1688C6.61247 18.7844 5.60935 18.2125 4.71872 17.4625C4.54997 17.3219 4.44685 17.0969 4.45622 16.8719L4.49372 14.4344C4.26872 14.1063 4.07185 13.7688 3.9031 13.4125L1.77497 12.2313C1.5781 12.1188 1.43747 11.9313 1.39997 11.7063C1.2031 10.5906 1.19372 9.42813 1.39997 8.29376C1.43747 8.06876 1.5781 7.88126 1.77497 7.76876L3.9031 6.58751Z" stroke="#BCB5D2" stroke-width="1.5" stroke-miterlimit="10" stroke-linecap="round" stroke-linejoin="round"/>
<path d="M10.9999 14.5C13.4852 14.5 15.4999 12.4853 15.4999 10C15.4999 7.51475 13.4852 5.50003 10.9999 5.50003C8.5146 5.50003 6.49988 7.51475 6.49988 10C6.49988 12.4853 8.5146 14.5 10.9999 14.5Z" stroke="#BCB5D2" stroke-width="1.5" stroke-miterlimit="10" stroke-linecap="round" stroke-linejoin="round"/>
</svg>
